HIERARCHY
ROOT root
{
	OFFSET	0	13.1	24.9
	CHANNELS 6  Xposition Yposition Zposition Xrotation Yrotation Zrotation
	JOINT spine_1
	{
		OFFSET	0	9.99999	0
		CHANNELS 3  Xrotation Yrotation Zrotation
		JOINT spine_2
		{
			OFFSET	0	112	-10
			CHANNELS 3  Xrotation Yrotation Zrotation
			JOINT spine_3
			{
				OFFSET	0	206.5	19.3
				CHANNELS 3  Xrotation Yrotation Zrotation
				JOINT spine_4
				{
					OFFSET	0	110.4	14.6
					CHANNELS 3  Xrotation Yrotation Zrotation
					JOINT neck_1
					{
						OFFSET	0	71.8	-50.3
						CHANNELS 3  Xrotation Yrotation Zrotation
						JOINT neck_2
						{
							OFFSET	0	86.2	-25.8
							CHANNELS 3  Xrotation Yrotation Zrotation
							JOINT head_ee
							{
								OFFSET	0	179.8	-8.7
								CHANNELS 3  Xrotation Yrotation Zrotation
								End Site
								{
									OFFSET	1	0	0
								}
							}
						}
					}
					JOINT left_clavicle
					{
						OFFSET	-43.2	22.4	-70.8
						CHANNELS 3  Xrotation Yrotation Zrotation
						JOINT left_shoulder
						{
							OFFSET	-93.9	-5.79999	48.7
							CHANNELS 3  Xrotation Yrotation Zrotation
							JOINT left_elbow
							{
								OFFSET	-291.4	-30.8	15.2
								CHANNELS 3  Xrotation Yrotation Zrotation
								JOINT left_lowarm_twist
								{
									OFFSET	-110.7	-3.89999	13.6
									CHANNELS 3  Xrotation Yrotation Zrotation
									JOINT left_hand
									{
										OFFSET	-110.7	-3.89999	13.6
										CHANNELS 3  Xrotation Yrotation Zrotation
										JOINT left_ee
										{
											OFFSET	-80.8	-5.10001	12.1
											CHANNELS 3  Xrotation Yrotation Zrotation
											End Site
											{
												OFFSET	1	0	0
											}
										}
									}
								}
							}
						}
					}
					JOINT right_clavicle
					{
						OFFSET	43.2	22.4	-70.8
						CHANNELS 3  Xrotation Yrotation Zrotation
						JOINT right_shoulder
						{
							OFFSET	93.9	-5.79999	48.7
							CHANNELS 3  Xrotation Yrotation Zrotation
							JOINT right_elbow
							{
								OFFSET	291.4	-30.8	15.2
								CHANNELS 3  Xrotation Yrotation Zrotation
								JOINT right_lowarm_twist
								{
									OFFSET	110.7	-3.89999	13.6
									CHANNELS 3  Xrotation Yrotation Zrotation
									JOINT right_hand
									{
										OFFSET	110.7	-3.89999	13.6
										CHANNELS 3  Xrotation Yrotation Zrotation
										JOINT right_ee
										{
											OFFSET	80.8	-5.10001	12.1
											CHANNELS 3  Xrotation Yrotation Zrotation
											End Site
											{
												OFFSET	1	0	0
											}
										}
									}
								}
							}
						}
					}
				}
			}
		}
	}
	JOINT left_hip
	{
		OFFSET	-82.8	-127.5	0.300001
		CHANNELS 3  Xrotation Yrotation Zrotation
		JOINT left_knee
		{
			OFFSET	-28.2	-396.7	2.2
			CHANNELS 3  Xrotation Yrotation Zrotation
			JOINT left_ankle
			{
				OFFSET	-11.7	-411.3	35.4
				CHANNELS 3  Xrotation Yrotation Zrotation
				JOINT left_toes
				{
					OFFSET	0	-60	-88.6
					CHANNELS 3  Xrotation Yrotation Zrotation
					JOINT left_foot_ee
					{
						OFFSET	-22.5	-16.5	-42.2
						CHANNELS 3  Xrotation Yrotation Zrotation
						End Site
						{
							OFFSET	1	0	0
						}
					}
				}
			}
		}
	}
	JOINT right_hip
	{
		OFFSET	82.8	-127.5	0.300001
		CHANNELS 3  Xrotation Yrotation Zrotation
		JOINT right_knee
		{
			OFFSET	28.2	-396.7	2.2
			CHANNELS 3  Xrotation Yrotation Zrotation
			JOINT right_ankle
			{
				OFFSET	11.7	-411.3	35.4
				CHANNELS 3  Xrotation Yrotation Zrotation
				JOINT right_toes
				{
					OFFSET	0	-60	-88.6
					CHANNELS 3  Xrotation Yrotation Zrotation
					JOINT right_foot_ee
					{
						OFFSET	22.5	-16.5	-42.2
						CHANNELS 3  Xrotation Yrotation Zrotation
						End Site
						{
							OFFSET	1	0	0
						}
					}
				}
			}
		}
	}
}
MOTION
Frames: 15
Frame Time: 0.02
1791.2 611.926 -1301.13 -42.6731 53.5017 45.1097 10.175 -0.35268 -1.77132 10.1767 -0.23927 -1.79017 10.1801 -0.178234 -1.79727 10.1759 -0.459799 -1.74659 -18.2616 -2.14421 3.23551 -18.2758 -5.86755 2.18947 -0.0 0.0 -0.0 3.32711 14.2751 7.08263 -58.341 -46.9902 62.4534 0.233347 -6.5939 0.0134423 -85.25 -8.48316 5.17837 2.31456 -28.8199 2.56524 -0.0 0.0 -0.0 10.4892 -3.66443 -20.418 90.6303 -60.6741 -5.04787 0.185131 5.23998 -0.00847152 85.4905 4.48535 8.8885 -11.3401 -32.5286 57.0456 0.0 0.0 0.0 55.174 -12.9914 -6.70147 -8.35469 0.25277 1.25614 -2.44089 10.5326 0.359396 40.1366 -0.0 -0.0 -0.0 0.0 -0.0 15.9081 7.377 -13.9657 -16.4608 -0.320988 -2.49702 40.8504 -3.32439 4.93235 15.7035 -0.0 -0.0 0.0 0.0 0.0 
1767.94 612.441 -1304.86 -41.9499 52.746 44.7264 9.98399 -0.320467 -2.00687 9.98621 -0.192142 -2.02319 9.98795 -0.116381 -2.02895 9.98247 -0.435292 -1.98514 -17.8143 -2.25491 4.86555 -17.8075 -6.99325 3.69328 -0.0 0.0 -0.0 4.43689 13.4992 8.89627 -59.966 -48.9706 61.7926 0.205376 -5.80927 0.0104205 -85.1074 -8.46534 5.18193 2.36177 -28.6963 2.9255 -0.0 0.0 -0.0 10.5299 -3.54961 -20.5094 90.1792 -59.9185 -4.84122 0.190623 5.39452 -0.00898037 85.653 4.50488 8.89579 -11.2649 -32.5039 56.2333 0.0 0.0 0.0 55.4462 -13.1053 -7.02417 -11.2468 0.297255 1.69765 0.74578 7.4744 -0.108956 39.0381 -0.0 -0.0 -0.0 0.0 -0.0 16.1851 7.48872 -13.6883 -19.6082 -0.300095 -2.97941 40.9781 -3.56917 4.9426 14.9379 -0.0 -0.0 0.0 0.0 0.0 
1735.42 607.492 -1314.06 -39.9726 52.9032 43.0683 10.0232 -0.311939 -2.26533 10.026 -0.167196 -2.28058 10.0262 -0.0833463 -2.28518 10.0192 -0.44311 -2.24338 -18.4273 -2.38469 6.15401 -18.4017 -7.88585 4.8151 -0.0 0.0 -0.0 3.2982 13.6237 7.0137 -56.1464 -50.6707 63.0565 0.302448 -8.52109 0.0225318 -85.1239 -8.46741 5.18152 3.39329 -28.4752 9.6068 -0.0 0.0 -0.0 9.99152 -4.64466 -19.3446 91.122 -60.287 -2.50174 0.182926 5.1779 -0.00827123 85.7414 4.51551 8.89974 -12.119 -33.5046 64.853 0.0 0.0 0.0 55.4267 -15.8347 -6.15424 -18.1811 0.312852 2.76082 5.43838 13.9586 -0.78844 37.3634 -0.0 -0.0 -0.0 0.0 -0.0 14.4767 4.93017 -12.5084 -23.0329 -0.247306 -3.50218 40.3998 -0.600156 4.906 19.3912 -0.0 -0.0 0.0 0.0 0.0 
1706.69 608.872 -1319.49 -39.9062 53.4961 43.3561 9.95264 -0.364866 -2.45778 9.95598 -0.20778 -2.476 9.95743 -0.113787 -2.4821 9.94919 -0.504243 -2.43303 -18.186 -2.05234 5.80034 -18.1553 -7.07981 4.62653 -0.0 0.0 -0.0 3.34348 14.1296 7.10474 -55.8199 -50.5564 62.274 0.347818 -9.77621 0.0297459 -85.1918 -8.47589 5.17983 3.04402 -28.0483 7.59904 -0.0 0.0 -0.0 9.16457 -3.09744 -17.8046 90.7439 -60.6034 -0.389329 0.191784 5.42719 -0.00908998 85.4752 4.48351 8.88781 -11.3553 -32.395 57.5628 0.0 0.0 0.0 54.3624 -15.5148 -6.13782 -20.051 0.29503 3.04716 7.06449 9.51345 -1.01424 38.1073 -0.0 -0.0 -0.0 0.0 -0.0 15.1138 5.27763 -12.0588 -27.2023 -0.141015 -4.13307 39.3998 -2.16595 4.81148 19.1222 -0.0 -0.0 0.0 0.0 0.0 
1673.71 614.157 -1328.33 -39.5722 54.7585 43.5035 9.6895 -0.401903 -2.64805 9.69337 -0.232647 -2.66824 9.69575 -0.119155 -2.67571 9.68616 -0.540091 -2.62338 -17.514 -2.03887 7.10638 -17.445 -7.83859 5.89292 -0.0 0.0 -0.0 4.18638 15.9141 8.50283 -61.7217 -52.4563 53.7911 0.511803 -14.2268 0.0638702 -85.1878 -8.47539 5.17993 2.93006 -28.5055 6.63227 -0.0 0.0 -0.0 9.32709 -5.05091 -18.0078 90.8773 -58.6746 2.4221 0.1874 5.30383 -0.00867998 85.5839 4.49658 8.8927 -11.1127 -32.2026 55.2358 0.0 0.0 0.0 52.7847 -15.7574 -5.06138 -23.6822 0.233778 3.6009 14.6168 11.1844 -2.04638 34.8294 -0.0 -0.0 -0.0 0.0 -0.0 15.9019 4.1227 -10.9344 -33.0176 0.0832931 -4.99693 37.0628 1.86059 4.63044 22.1354 -0.0 -0.0 0.0 0.0 0.0 
1644.77 614.72 -1339.43 -38.7388 56.1385 42.6293 9.29774 -0.293074 -2.48617 9.30117 -0.134329 -2.49977 9.3 -0.0106774 -2.50335 9.29149 -0.405779 -2.47029 -16.5323 -1.6489 7.12961 -16.4448 -7.2172 6.1126 -0.0 0.0 -0.0 3.22813 17.8753 7.03129 -63.0903 -53.7614 49.1992 0.611007 -16.8399 0.0904437 -85.0486 -8.458 5.18339 3.25573 -27.9326 9.01725 -0.0 0.0 -0.0 8.78349 -4.36981 -16.9876 85.9403 -59.1934 0.336497 0.18918 5.35394 -0.00884532 85.1428 4.44363 8.87269 -10.6579 -30.8193 53.3662 0.0 0.0 0.0 51.5308 -18.0132 -3.56869 -25.0102 0.202628 3.80231 12.4309 13.9961 -1.76211 31.9052 -0.0 -0.0 -0.0 0.0 -0.0 17.8013 1.82354 -9.59707 -39.9585 0.46413 -5.99248 37.7745 5.3026 4.73925 26.0537 -0.0 -0.0 0.0 0.0 0.0 
1625.42 620.708 -1343.32 -39.7358 57.9786 43.9991 8.96448 -0.400433 -2.40808 8.96767 -0.246435 -2.42867 8.97176 -0.112285 -2.43855 8.96381 -0.495888 -2.39026 -17.061 -2.8621 7.26702 -17.0154 -9.56084 5.76857 -0.0 0.0 -0.0 3.43468 19.5588 7.38198 -66.5615 -55.4976 43.7593 0.732385 -19.9409 0.128751 -85.2346 -8.48123 5.17876 3.52556 -23.5576 13.1188 -0.0 0.0 -0.0 8.36828 -3.16131 -16.2307 89.4222 -59.2727 6.00008 0.19329 5.46955 -0.00923295 85.1886 4.44912 8.87479 -10.4074 -31.4383 49.6746 0.0 0.0 0.0 50.7106 -18.6307 -2.41018 -27.0267 0.146418 4.10666 17.0006 13.042 -2.36371 24.3911 -0.0 -0.0 -0.0 0.0 -0.0 21.2299 -0.850534 -9.22351 -46.4289 0.925569 -6.8737 39.058 11.8883 4.99086 29.8308 -0.0 -0.0 0.0 0.0 0.0 
1604.9 617.705 -1348.11 -40.7497 59.5245 44.69 8.8393 -0.508159 -2.24743 8.84203 -0.364157 -2.2752 8.85103 -0.23354 -2.29228 8.84419 -0.592542 -2.22669 -18.1329 -2.96839 6.74353 -18.1154 -9.35669 5.1587 -0.0 0.0 -0.0 4.54304 21.5385 9.01429 -66.1849 -57.1816 38.8825 0.625542 -17.217 0.0947003 -85.0423 -8.45722 5.18354 4.00523 -25.5159 15.2343 -0.0 0.0 -0.0 6.8185 -2.53562 -13.2262 90.7203 -62.5218 10.2861 0.200483 5.67178 -0.00993112 85.2787 4.45992 8.8789 -9.33235 -29.6427 43.3045 0.0 0.0 0.0 49.7457 -19.231 -0.765074 -28.5126 0.0981558 4.32959 24.6287 14.2829 -3.31651 17.1454 -0.0 -0.0 -0.0 0.0 -0.0 23.9485 -2.48215 -7.72384 -53.7304 1.56234 -7.79953 38.6652 13.7131 5.00651 31.3184 -0.0 -0.0 0.0 0.0 0.0 
1585.66 616.99 -1354.66 -42.7392 60.7676 46.8466 8.77794 -0.568903 -2.1549 8.78042 -0.430662 -2.18671 8.79189 -0.302757 -2.20805 8.78567 -0.647598 -2.13258 -16.4564 -3.53494 6.44614 -16.4541 -10.4512 4.79868 -0.0 0.0 -0.0 4.98992 21.1178 9.67703 -66.0278 -57.7382 35.8576 0.665189 -18.2379 0.106773 -83.8619 -8.30936 5.21112 3.8786 -25.791 14.2415 -0.0 0.0 -0.0 5.93468 -2.33016 -11.5206 89.2826 -64.037 11.4759 0.195212 5.52361 -0.00941706 85.2917 4.46149 8.87949 -8.3615 -27.7825 38.2434 0.0 0.0 0.0 49.0477 -19.7072 0.0834619 -29.8766 0.0487716 4.5331 30.8188 13.9205 -4.01255 10.4243 -0.0 -0.0 -0.0 0.0 -0.0 27.3127 -1.56235 -7.67226 -57.7852 1.96564 -8.27694 35.9226 15.7386 4.81028 35.1837 -0.0 -0.0 0.0 0.0 0.0 
1568.04 616.795 -1359.09 -46.2429 61.1071 50.9265 9.10654 -0.485632 -2.52392 9.11003 -0.324098 -2.54968 9.11731 -0.189761 -2.56317 9.10863 -0.592058 -2.50111 -16.3599 -3.82385 7.03612 -16.3542 -11.3515 5.26024 -0.0 0.0 -0.0 4.82674 20.0663 9.46245 -67.0642 -59.1946 34.2267 0.835788 -22.4906 0.16618 -85.2351 -8.48131 5.17874 4.1459 -24.2123 16.9113 -0.0 0.0 -0.0 5.23654 -2.84053 -10.1923 88.9662 -64.1121 12.4297 0.217493 6.14945 -0.0116828 85.1864 4.44885 8.87469 -8.60767 -28.2872 39.4692 0.0 0.0 0.0 49.0642 -16.771 -0.914638 -29.9984 0.0441272 4.55121 30.3119 10.1199 -3.93091 10.4391 -0.0 -0.0 -0.0 0.0 -0.0 29.9149 -2.36432 -7.55631 -57.3486 1.92059 -8.22689 36.7088 17.6239 4.95168 35.4515 -0.0 -0.0 0.0 0.0 0.0 
1551.65 620.892 -1361.95 -49.4236 61.2394 54.113 9.12975 -0.629183 -2.60719 9.13342 -0.462065 -2.64191 9.14706 -0.324233 -2.66233 9.13793 -0.74049 -2.57781 -14.8438 -4.84659 6.34089 -14.8755 -13.0449 4.40415 -0.0 0.0 -0.0 5.64341 19.2849 10.7232 -64.4088 -59.5265 33.9214 0.889849 -23.7879 0.187426 -85.2186 -8.47924 5.17916 4.7294 -25.7655 19.9399 -0.0 0.0 -0.0 4.09598 -5.87188 -8.14381 84.4248 -64.7392 8.16297 0.213439 6.03568 -0.0112525 85.1733 4.44729 8.87409 -8.66451 -28.918 39.0905 0.0 0.0 0.0 48.8457 -19.187 0.546592 -29.929 0.0467801 4.54088 30.5086 12.2847 -3.96527 10.8105 -0.0 -0.0 -0.0 0.0 -0.0 32.4409 -0.697164 -7.42732 -56.5621 1.84041 -8.13591 37.174 19.7076 5.07733 36.2023 -0.0 -0.0 0.0 0.0 0.0 
1529.7 624.808 -1377.92 -50.3552 61.0462 55.8287 9.38364 -0.614828 -2.81881 9.38795 -0.434289 -2.85218 9.4003 -0.29826 -2.86958 9.38959 -0.747538 -2.78658 -14.196 -4.01435 6.40612 -14.1828 -11.552 4.80953 -0.0 0.0 -0.0 6.72548 15.4319 12.6378 -56.3506 -59.5835 34.7745 1.0496 -27.4711 0.256561 -84.9779 -8.44916 5.18513 5.00496 -23.1582 23.4274 -0.0 0.0 -0.0 3.27624 -8.84044 -6.78798 81.2258 -65.4292 6.786 0.19804 5.60312 -0.00969122 84.1959 4.3305 8.82838 -6.86698 -21.4997 33.9199 0.0 0.0 0.0 48.9855 -10.3769 -2.92921 -32.1335 -0.0435485 4.86711 32.7631 6.36752 -4.17635 5.64662 -0.0 -0.0 -0.0 0.0 -0.0 33.4391 -1.07474 -9.27334 -56.3566 1.81968 -8.11197 36.6382 17.1063 4.9263 35.9155 -0.0 -0.0 0.0 0.0 0.0 
1501.67 627.666 -1384.88 -49.1851 62.679 55.0096 9.10653 -0.574361 -3.08114 9.11173 -0.377234 -3.1114 9.12158 -0.213672 -3.12688 9.10863 -0.704591 -3.05401 -15.1802 -4.41035 6.75007 -15.1895 -12.425 4.90301 -0.0 0.0 -0.0 7.79779 14.6391 14.4861 -55.0121 -58.5074 34.3376 1.10522 -28.6996 0.282749 -84.8507 -8.43326 5.18823 4.58768 -23.5229 20.3128 -0.0 0.0 -0.0 2.00567 -11.6708 -4.75783 77.6617 -65.4173 3.82491 0.205213 5.80469 -0.010404 82.5124 4.13122 8.745 -7.42615 -25.4848 34.0148 0.0 0.0 0.0 47.3531 -15.3378 -1.90563 -37.1691 -0.29656 5.59788 31.3341 8.47348 -4.03276 13.6181 -0.0 -0.0 -0.0 0.0 -0.0 35.1237 -2.20041 -8.47655 -57.1021 1.89532 -8.19849 37.3819 19.9996 5.10953 36.4951 -0.0 -0.0 0.0 0.0 0.0 
1481.81 631.127 -1395.6 -52.2091 62.792 57.9869 9.54802 -0.625332 -3.1869 9.55357 -0.421382 -3.22019 9.56516 -0.277224 -3.23577 9.5514 -0.78452 -3.15153 -15.4416 -5.88829 7.34183 -15.5153 -15.572 4.92282 -0.0 0.0 -0.0 9.40546 10.3644 17.7166 -52.3234 -58.2634 36.0035 1.03114 -27.0571 0.248105 -84.6528 -8.40849 5.19298 4.56071 -19.2719 22.5722 -0.0 0.0 -0.0 0.698974 -14.9136 -2.87564 74.2111 -66.0765 0.816634 0.189333 5.35823 -0.0088595 81.462 4.00814 8.69003 -6.39058 -21.6818 30.3365 0.0 0.0 0.0 47.1866 -12.3923 -2.58692 -38.1704 -0.354492 5.74044 30.6933 6.30047 -3.96176 13.3868 -0.0 -0.0 -0.0 0.0 -0.0 36.1678 -0.8459 -8.65857 -54.6258 1.64846 -7.90736 36.9789 20.3435 5.0848 36.5785 -0.0 -0.0 0.0 0.0 0.0 
1462.14 631.372 -1408.78 -54.868 64.122 60.7357 9.62314 -0.674089 -3.06637 9.62825 -0.477698 -3.103 9.6428 -0.343019 -3.12075 9.63017 -0.831352 -3.02756 -15.5516 -5.34056 6.29777 -15.6221 -13.9038 4.11072 -0.0 0.0 -0.0 9.45143 7.60195 18.0552 -51.6084 -57.8577 35.6024 1.16079 -29.8987 0.309943 -83.8396 -8.30657 5.21161 4.13445 -17.0952 20.737 -0.0 0.0 -0.0 -0.0231455 -19.2289 -2.2111 71.6813 -65.769 -1.74863 0.198893 5.6271 -0.0097747 79.1559 3.74157 8.56147 -6.0171 -18.8322 30.1136 0.0 0.0 0.0 46.7153 -7.61407 -4.37246 -41.3615 -0.555648 6.18781 28.3525 2.32097 -3.71837 15.4563 -0.0 -0.0 -0.0 0.0 -0.0 37.0917 -0.924646 -9.20316 -53.3529 1.52655 -7.75368 37.9701 21.618 5.23699 36.3537 -0.0 -0.0 0.0 0.0 0.0 
